<svg width="33" height="33" viewBox="0 0 33 33" fill="none" xmlns="http://www.w3.org/2000/svg">
<path d="M30.9586 33H2.04181C0.921457 33 0.0200195 32.091 0.0200195 30.9758V2.02422C0.0200195 0.90252 0.927895 0 2.04181 0H30.9586C32.079 0 32.9804 0.908967 32.9804 2.02422V30.9758C32.9804 32.0975 32.079 33 30.9586 33Z" fill="#0078D7"/>
<path d="M22.6908 10.3081C22.6908 10.4048 22.6908 10.4951 22.6844 10.5918C21.9375 10.4306 21.1584 10.3017 20.3535 10.1986C20.2956 8.11631 18.5957 6.44665 16.5031 6.44665C14.4105 6.44665 12.7042 8.11631 12.6527 10.1986C11.8478 10.3017 11.0687 10.4306 10.3218 10.5918C10.3154 10.4951 10.3154 10.3984 10.3154 10.3017C10.3154 6.87857 13.0841 4.1001 16.5095 4.1001C19.9157 4.11299 22.6908 6.88502 22.6908 10.3081ZM16.5288 28.9001C27.462 24.2972 25.7943 12.5773 25.7943 12.5773C23.2446 11.6232 20.0251 11.0559 16.516 11.0559C13.0068 11.0559 9.78739 11.6232 7.23761 12.5773C7.23761 12.5773 5.56995 24.2972 16.5031 28.9001H16.5288Z" fill="white"/>
<path d="M19.5424 21.5186C19.5424 21.654 19.5359 21.7829 19.5166 21.9119H13.5092C13.4898 21.7829 13.4834 21.654 13.4834 21.5186C13.4834 20.152 14.3848 18.998 15.6275 18.6177C14.7905 18.2696 14.1981 17.4444 14.1981 16.4774C14.1981 15.1945 15.2348 14.1631 16.5097 14.1631C17.7845 14.1631 18.8212 15.201 18.8212 16.4774C18.8212 17.4444 18.2288 18.2696 17.3918 18.6177C18.6409 18.9916 19.5424 20.152 19.5424 21.5186Z" fill="#0078D7"/>
</svg>
