<?xml version="1.0" encoding="utf-8"?>
<svg version="1.1" xmlns:xlink="http://www.w3.org/1999/xlink" width="30px" height="30px" xmlns="http://www.w3.org/2000/svg">
    <defs>
        <filter x="146px" y="12px" width="30px" height="30px" filterUnits="userSpaceOnUse" id="filter37">
            <feOffset dx="1" dy="1" in="SourceAlpha" result="shadowOffsetInner" />
            <feGaussianBlur stdDeviation="1.5" in="shadowOffsetInner" result="shadowGaussian" />
            <feComposite in2="shadowGaussian" operator="atop" in="SourceAlpha" result="shadowComposite" />
            <feColorMatrix type="matrix" values="0 0 0 0 0  0 0 0 0 0  0 0 0 0 0  0 0 0 0.349019607843137 0  " in="shadowComposite" />
        </filter>
        <g id="widget38">
            <path d="M 160 14  C 166.72 14  172 19.28  172 26  C 172 32.72  166.72 38  160 38  C 153.28 38  148 32.72  148 26  C 148 19.28  153.28 14  160 14  Z " fill-rule="nonzero" fill="#ffffff" stroke="none" />
            <path d="M 160 14.5  C 166.44 14.5  171.5 19.56  171.5 26  C 171.5 32.44  166.44 37.5  160 37.5  C 153.56 37.5  148.5 32.44  148.5 26  C 148.5 19.56  153.56 14.5  160 14.5  Z " stroke-width="1" stroke="#e0e0e0" fill="none" />
        </g>
    </defs>
    <g transform="matrix(1 0 0 1 -146 -12 )">
        <use xlink:href="#widget38" filter="url(#filter37)" />
        <use xlink:href="#widget38" />
    </g>
</svg>