<svg width="33" height="33" viewBox="0 0 33 33" fill="none" xmlns="http://www.w3.org/2000/svg">
<path d="M14.73 1.47995C17.1041 1.20216 19.545 1.48704 21.7854 2.32557C23.8076 3.08193 25.6716 4.27238 27.1904 5.80894C25.8914 7.09704 24.6042 8.39706 23.3068 9.68676C22.4705 8.8666 21.496 8.1834 20.4235 7.70902C18.9984 7.07029 17.4138 6.78927 15.8563 6.89691C14.0968 7.01035 12.3723 7.62169 10.9376 8.64681C9.1574 9.90204 7.82419 11.7799 7.23799 13.8788C6.79842 15.4186 6.762 17.0683 7.11682 18.629C7.40202 19.9055 7.95761 21.1198 8.72976 22.1749C9.44648 23.1562 10.3508 24.0002 11.3794 24.647C12.565 25.3959 13.9176 25.8787 15.3098 26.0482C16.5028 26.198 17.7235 26.1201 18.8885 25.8226C19.0165 25.761 19.0896 25.9067 19.1699 25.9792C20.4828 27.2989 21.8021 28.6121 23.1154 29.9312C20.7528 31.0784 18.0883 31.6024 15.468 31.4175C13.275 31.2721 11.1152 30.6414 9.19318 29.5747C8.3917 29.1365 7.63889 28.6137 6.92668 28.0427C6.36401 27.5654 5.8081 27.0756 5.32438 26.5168C4.5055 25.6341 3.80296 24.6441 3.22417 23.5883C3.09527 23.3395 2.94574 23.1011 2.84068 22.8407C2.69662 22.549 2.57094 22.249 2.4459 21.949C2.28606 21.5213 2.11526 21.0969 1.9986 20.6551C1.98474 20.5967 1.94929 20.5478 1.91739 20.4988C1.64991 19.5752 1.50005 18.619 1.41981 17.6615C1.33537 16.4576 1.37695 15.2429 1.57385 14.0512C1.96637 11.6187 2.97281 9.29006 4.46973 7.3339C5.44039 6.06095 6.61376 4.94237 7.93279 4.03551C9.94502 2.64623 12.3005 1.75742 14.73 1.47995ZM16.3149 3.10675C16.1312 3.13865 15.9617 3.22792 15.8193 3.34619C15.4841 3.63397 15.3636 4.14573 15.556 4.54759C15.76 5.03164 16.3668 5.29203 16.8567 5.09545C17.3539 4.92658 17.6552 4.3378 17.4928 3.83668C17.3607 3.33942 16.8186 3.00555 16.3149 3.10675ZM7.67949 6.7158C7.50773 6.72482 7.33821 6.77767 7.19094 6.86662C6.8213 7.09317 6.61473 7.56722 6.72817 7.99004C6.82775 8.44379 7.26893 8.79763 7.73557 8.78313C8.21993 8.79634 8.67272 8.41607 8.75199 7.93976C8.82418 7.60686 8.70011 7.24528 8.45744 7.01003C8.25635 6.80603 7.96438 6.70001 7.67949 6.7158ZM3.9425 15.4814C3.72916 15.5211 3.52871 15.629 3.37725 15.7844C3.07271 16.0976 2.99955 16.6084 3.21547 16.9903C3.44621 17.4402 4.0366 17.6625 4.50389 17.4614C4.98793 17.2839 5.277 16.7067 5.11813 16.2139C4.98793 15.7173 4.44588 15.3773 3.9425 15.4814ZM7.55123 24.2487C7.18095 24.3115 6.85901 24.5941 6.75072 24.9538C6.62601 25.3286 6.74653 25.7646 7.03754 26.0288C7.23573 26.2055 7.5016 26.3092 7.76812 26.297C8.12776 26.2889 8.47646 26.0756 8.6421 25.7556C8.80098 25.471 8.80807 25.1104 8.66498 24.8178C8.47742 24.4059 7.99435 24.1626 7.55123 24.2487ZM16.3188 27.859C15.9398 27.9241 15.6124 28.2157 15.5102 28.5873C15.3855 28.9924 15.5466 29.4655 15.894 29.7085C16.1473 29.8951 16.4877 29.9557 16.789 29.8651C17.0987 29.7758 17.3594 29.5351 17.468 29.2309C17.6282 28.8203 17.4796 28.3182 17.127 28.0559C16.9008 27.8803 16.6001 27.8087 16.3188 27.859Z" fill="#A0A0A0"/>
<path d="M16.3151 3.10648C16.8188 3.00529 17.3608 3.33916 17.493 3.83642C17.6554 4.33754 17.3541 4.92632 16.8568 5.09519C16.367 5.29177 15.7602 5.03138 15.5562 4.54733C15.3638 4.14547 15.4843 3.63371 15.8194 3.34593C15.9619 3.22766 16.1314 3.13839 16.3151 3.10648Z" fill="#C1C1C1"/>
<path d="M3.94248 15.4812C4.44586 15.3771 4.98791 15.7171 5.11811 16.2137C5.27698 16.7065 4.98791 17.2836 4.50387 17.4612C4.03658 17.6623 3.44619 17.4399 3.21545 16.99C2.99953 16.6082 3.07269 16.0974 3.37723 15.7841C3.52869 15.6288 3.72914 15.5208 3.94248 15.4812Z" fill="#C1C1C1"/>
<path d="M27.1903 5.80872L27.1939 5.80518C27.9879 6.61471 28.7072 7.50029 29.3082 8.4629C30.4687 10.305 31.2219 12.4016 31.4955 14.5618C31.6782 16.0081 31.6653 17.4815 31.4294 18.9211C31.0201 21.4995 29.9167 23.9616 28.2744 25.9903C26.9112 27.6815 25.1849 29.0853 23.2339 30.0431L23.2136 30.0347C23.181 29.9993 23.1481 29.9651 23.1153 29.9309C21.802 28.6119 20.4827 27.2987 19.1698 25.979C19.0895 25.9065 19.0164 25.7608 18.8884 25.8224C17.7234 26.1198 16.5027 26.1978 15.3097 26.048C13.9175 25.8785 12.5649 25.3957 11.3793 24.6468C10.3506 24 9.44636 23.156 8.72965 22.1747C7.9575 21.1196 7.40191 19.9053 7.11671 18.6288C6.76189 17.068 6.79831 15.4184 7.23788 13.8786C7.82408 11.7797 9.15729 9.90182 10.9375 8.64659C12.3722 7.62146 14.0967 7.01013 15.8562 6.89669C17.4137 6.78905 18.9983 7.07007 20.4234 7.7088C21.4959 8.18317 22.4704 8.86638 23.3067 9.68654C24.6041 8.39684 25.8913 7.09682 27.1903 5.80872ZM15.8546 11.7374C15.1704 11.8293 14.5046 12.0687 13.9249 12.4445C13.1811 12.9102 12.5791 13.5911 12.1879 14.3752C11.718 15.3162 11.5872 16.4122 11.785 17.4422C11.9117 18.0819 12.1727 18.6952 12.5443 19.2311C12.7999 19.6023 13.1131 19.9291 13.4354 20.2424C15.2829 22.0925 17.1289 23.9439 18.978 25.7921C20.56 25.3709 22.0289 24.5372 23.2013 23.3944C24.655 21.9977 25.6396 20.1254 25.9828 18.1396C25.9905 18.1061 25.9899 18.0458 26.0424 18.0558C26.9973 18.0571 27.9521 18.0555 28.9073 18.0574C29.5209 18.0477 30.0955 17.5814 30.2209 16.9791C30.228 16.9401 30.2209 16.9043 30.1993 16.8711C30.2386 16.6871 30.2663 16.4979 30.2438 16.3094L30.236 16.3223C30.17 15.6668 29.5644 15.1261 28.9067 15.1245C26.3079 15.1222 23.7092 15.1241 21.1101 15.1222C20.9026 14.4106 20.5139 13.758 20.0135 13.2134C19.182 12.3272 18.007 11.7629 16.7902 11.7046C16.4782 11.7052 16.1637 11.6872 15.8546 11.7374ZM25.0833 24.2513C24.676 24.3177 24.3302 24.6571 24.2551 25.0628C24.2074 25.3251 24.2506 25.6113 24.4075 25.8314C24.5932 26.1279 24.949 26.3071 25.2973 26.2906C25.5654 26.2916 25.822 26.1633 26.0115 25.9793C26.1684 25.7989 26.2838 25.571 26.2909 25.3284C26.3186 24.9619 26.1278 24.5839 25.8117 24.3951C25.6015 24.2513 25.3318 24.2098 25.0833 24.2513Z" fill="#686868"/>
<path d="M7.6792 6.7159C7.96408 6.70011 8.25606 6.80613 8.45715 7.01013C8.69982 7.24538 8.82389 7.60696 8.7517 7.93986C8.67242 8.41617 8.21964 8.79645 7.73527 8.78323C7.26863 8.79773 6.82745 8.44389 6.72787 7.99014C6.61443 7.56732 6.82101 7.09327 7.19065 6.86672C7.33792 6.77777 7.50743 6.72492 7.6792 6.7159Z" fill="#C3C3C3"/>
<path d="M15.8544 11.7377C16.1635 11.6874 16.478 11.7054 16.79 11.7048C18.0068 11.7631 19.1818 12.3274 20.0133 13.2136C20.5137 13.7583 20.9024 14.4108 21.1099 15.1224C19.5737 15.1221 18.0371 15.1221 16.5006 15.1221C16.1077 15.1185 15.7197 15.2968 15.4625 15.5929C15.2689 15.8137 15.1487 16.0973 15.1261 16.3902C15.0878 16.8469 15.2988 17.3151 15.664 17.5916C15.9095 17.7821 16.2208 17.8816 16.5315 17.8752C20.6143 17.8739 24.6974 17.8733 28.7802 17.8762C28.9336 17.8775 29.0892 17.8713 29.2378 17.8285C29.6957 17.7054 30.0763 17.3299 30.1991 16.8713C30.2207 16.9045 30.2278 16.9403 30.2207 16.9793C30.0953 17.5816 29.5207 18.0479 28.9071 18.0576C27.952 18.0557 26.9971 18.0573 26.0422 18.056C25.9897 18.046 25.9903 18.1063 25.9826 18.1398C25.6394 20.1256 24.6549 21.9979 23.2011 23.3946C22.0287 24.5374 20.5598 25.3711 18.9778 25.7923C17.1287 23.9441 15.2827 22.0927 13.4352 20.2426C13.1129 19.9293 12.7997 19.6025 12.5441 19.2313C12.1725 18.6954 11.9115 18.0821 11.7849 17.4424C11.587 16.4124 11.7178 15.3164 12.1877 14.3754C12.5789 13.5913 13.1809 12.9104 13.9247 12.4447C14.5045 12.0689 15.1703 11.8295 15.8544 11.7377Z" fill="#474747"/>
<path d="M15.4624 15.593C15.7196 15.2968 16.1076 15.1186 16.5004 15.1221C18.037 15.1221 19.5736 15.1221 21.1098 15.1224C23.7089 15.1244 26.3076 15.1224 28.9064 15.1247C29.5641 15.1263 30.1697 15.6671 30.2357 16.3226C30.2296 16.3332 30.217 16.3538 30.2106 16.3641C30.092 15.7676 29.5155 15.2955 28.9064 15.299C24.879 15.3023 20.8517 15.3029 16.8243 15.3045C16.5752 15.3087 16.3171 15.2787 16.0783 15.3677C15.7863 15.4592 15.5391 15.661 15.3606 15.9059C15.2529 16.0525 15.2191 16.2359 15.126 16.3902C15.1485 16.0973 15.2687 15.8137 15.4624 15.593Z" fill="#BFBFBF"/>
<path d="M7.55104 24.2487C7.99416 24.1626 8.47723 24.4059 8.66479 24.8178C8.80788 25.1104 8.80079 25.471 8.64191 25.7556C8.47627 26.0756 8.12758 26.2889 7.76793 26.297C7.50141 26.3093 7.23554 26.2055 7.03735 26.0289C6.74634 25.7646 6.62582 25.3286 6.75053 24.9538C6.85882 24.5942 7.18076 24.3115 7.55104 24.2487Z" fill="#BFBFBF"/>
<path d="M16.0783 15.3675C16.3171 15.2785 16.5753 15.3085 16.8244 15.3043C20.8517 15.3027 24.8791 15.3021 28.9064 15.2988C29.5155 15.2953 30.0921 15.7674 30.2107 16.3639C30.2171 16.3536 30.2297 16.333 30.2358 16.3224L30.2435 16.3095C30.2661 16.498 30.2384 16.6872 30.1991 16.8712C30.0763 17.3298 29.6957 17.7052 29.2377 17.8283C29.0892 17.8712 28.9335 17.8773 28.7801 17.876C24.6973 17.8731 20.6142 17.8737 16.5314 17.875C16.2208 17.8815 15.9095 17.7819 15.6639 17.5914C15.2988 17.3149 15.0877 16.8467 15.126 16.39C15.2192 16.2357 15.253 16.0523 15.3607 15.9057C15.5392 15.6608 15.7864 15.459 16.0783 15.3675Z" fill="#B0B0B0"/>
<path d="M1.91699 20.4985C1.9489 20.5475 1.98435 20.5965 1.9982 20.6548C2.11486 21.0967 2.28566 21.5211 2.44551 21.9487C2.57055 22.2488 2.69623 22.5488 2.84028 22.8404C2.94534 23.1008 3.09487 23.3393 3.22378 23.5881C3.80257 24.6438 4.50511 25.6338 5.32398 26.5165C5.80771 27.0753 6.36361 27.5652 6.92629 28.0425C7.6385 28.6135 8.39131 29.1362 9.19278 29.5745C11.1148 30.6412 13.2746 31.2719 15.4676 31.4172C18.088 31.6022 20.7525 31.0782 23.115 29.9309C23.1479 29.9651 23.1807 29.9993 23.2133 30.0347L23.2142 30.0544C21.8504 30.7321 20.3822 31.1994 18.8778 31.4372C17.0438 31.724 15.157 31.6786 13.3407 31.2922C11.1528 30.8297 9.07322 29.8674 7.30076 28.5043C5.25373 26.9371 3.61662 24.8391 2.6002 22.4692C2.32885 21.8288 2.08683 21.173 1.91699 20.4985Z" fill="#939393"/>
<path d="M25.0834 24.2516C25.3319 24.2101 25.6016 24.2516 25.8117 24.3954C26.1279 24.5842 26.3187 24.9622 26.2909 25.3286C26.2839 25.5713 26.1685 25.7991 26.0115 25.9796C25.822 26.1636 25.5655 26.2919 25.2974 26.2909C24.949 26.3074 24.5933 26.1282 24.4076 25.8317C24.2507 25.6116 24.2075 25.3254 24.2552 25.0631C24.3303 24.6574 24.6761 24.318 25.0834 24.2516Z" fill="#767676"/>
<path d="M16.3187 27.859C16.6001 27.8087 16.9007 27.8803 17.127 28.0559C17.4795 28.3182 17.6281 28.8203 17.4679 29.2309C17.3593 29.5351 17.0986 29.7758 16.7889 29.8651C16.4876 29.9556 16.1473 29.8951 15.894 29.7085C15.5466 29.4655 15.3855 28.9924 15.5102 28.5873C15.6123 28.2157 15.9398 27.9241 16.3187 27.859Z" fill="#BEBEBE"/>
</svg>
